<?xml version="1.0" ?>
<svg enable-background="new 0 0 64 64" height="64px" id="Layer_1" version="1.1" viewBox="0 0 64 64" width="64px"
     xml:space="preserve" xmlns="http://www.w3.org/2000/svg" xmlns:xlink="http://www.w3.org/1999/xlink">
    <path
        d="M40.359,1.877v1.519c0,1.027-0.826,1.856-1.84,1.856h-0.644v2.976c-6.321-1.319-11.75,0-11.75,0V5.252    h-0.644c-1.013,0-1.841-0.829-1.841-1.856V1.877c0-1.027,0.828-1.841,1.841-1.841H38.52C39.533,0.036,40.359,0.85,40.359,1.877z"/>
  <path
      d="M55.332,12.794l-8.273-5.782l0,0c-0.51-0.355-0.848-0.139-1.027,0.06l-0.148,0.213l-2.066,2.957    c0,0,5.215,2.037,9.641,6.736l2.078-2.974C56.012,13.316,55.395,12.84,55.332,12.794z"/>
  <path
      d="M32.001,10.277c-14.826,0-26.843,12.018-26.843,26.844c0,14.823,12.018,26.843,26.843,26.843    c14.823,0,26.841-12.02,26.841-26.843C58.842,22.295,46.824,10.277,32.001,10.277z M32.001,37.121V15.892    c0,0,19.94-0.333,21.228,21.229C38.9,37.075,32.001,37.121,32.001,37.121z"/>
  <style>
  path {
    fill: black;
  }

  @media (prefers-color-scheme: dark) {
    path {
      fill: lightgray;
    }
  }
  </style>

</svg>
